# xmcd
#
# Track frame offsets:
#	150
#	13212
#	29217
#	48732
#	61597
#	75845
#	92135
#	110645
#	126285
#	145367
#	157465
#	175387
#	190697
#	209207
#	226115
#	242562
#	258575
#
# Disc length: 3697 seconds
#
# Revision: 0
# Processed by: cddbd v1.5.1PL0 Copyright (c) Steve Scherf et al.
# Submitted via: MusicManager 7.0.6.0 
#
DISCID=fb0e6f11
DTITLE=Unknown - Drew's Famous Todays Best Country
DYEAR=1900
DGENRE=country
TTITLE0=Kiss This
TTITLE1=My Next Thirty Years
TTITLE2=Cowboy Take Me Away
TTITLE3=It Must Be Love
TTITLE4=The Way You Love Me
TTITLE5=The Little Girl
TTITLE6=Breathe
TTITLE7=What About Now
TTITLE8=Let's Make Love
TTITLE9=Katie Wants a Fast One
TTITLE10=I Hope You Dance
TTITLE11=That's the Way
TTITLE12=Best of Intentions
TTITLE13=We Danced
TTITLE14=I Will... But
TTITLE15=Without You
TTITLE16=One Voice
EXTD=
EXTT0=
EXTT1=
EXTT2=
EXTT3=
EXTT4=
EXTT5=
EXTT6=
EXTT7=
EXTT8=
EXTT9=
EXTT10=
EXTT11=
EXTT12=
EXTT13=
EXTT14=
EXTT15=
EXTT16=
PLAYORDER=
